<?xml version="1.0" encoding="iso-8859-1"?>
<!-- Generator: Adobe Illustrator 19.0.0, SVG Export Plug-In . SVG Version: 6.00 Build 0)  -->
<svg version="1.1" id="Capa_1" xmlns="http://www.w3.org/2000/svg" xmlns:xlink="http://www.w3.org/1999/xlink" x="0px" y="0px"
	 viewBox="0 0 512 512" style="enable-background:new 0 0 512 512;" xml:space="preserve">
<path style="fill:#261d22;" d="M501.818,91.002c-1.875-4.731-6.009-8.203-10.995-9.235c-4.985-1.031-10.155,0.516-13.756,4.116
	l-77.999,77.999l-41.934-9.016l-9.016-41.934l77.999-77.999c3.6-3.6,5.147-8.77,4.116-13.756c-1.03-4.985-4.504-9.118-9.235-10.995
	c-53.552-21.237-114.47-8.645-155.195,32.079c-19.605,19.605-33.068,44.23-38.933,71.211c-5.018,23.083-4.313,46.934,1.99,69.548
	L20.702,391.178c-27.603,27.603-27.603,72.516,0,100.119s72.516,27.603,100.119,0l208.157-208.156
	c22.613,6.303,46.465,7.008,69.548,1.99c26.982-5.865,51.606-19.328,71.211-38.933C510.463,205.473,523.054,144.555,501.818,91.002z
	"/>
<path style="fill:#406763;" d="M120.821,491.298l208.157-208.157c22.613,6.303,46.465,7.008,69.548,1.99
	c26.982-5.865,51.606-19.328,71.211-38.933c40.725-40.725,53.316-101.642,32.079-155.195c-1.875-4.731-6.009-8.203-10.995-9.235
	c-4.985-1.031-10.155,0.516-13.756,4.116l-77.999,77.999l-41.934-9.016L20.702,491.298C48.305,518.9,93.218,518.9,120.821,491.298z"
	/>
<g>
</g>
<g>
</g>
<g>
</g>
<g>
</g>
<g>
</g>
<g>
</g>
<g>
</g>
<g>
</g>
<g>
</g>
<g>
</g>
<g>
</g>
<g>
</g>
<g>
</g>
<g>
</g>
<g>
</g>
</svg>
