<svg id="Layer_1" enable-background="new 0 0 501.771 501.771" height="512" viewBox="0 0 501.771 501.771" width="512" xmlns="http://www.w3.org/2000/svg"><g id="XMLID_2249_"><path id="XMLID_2399_" d="m415.885 195-165-195h-86.5c-43.285 0-78.5 35.215-78.5 78.5v266.5 75l30-30h135z" fill="#c66ed5"/><path id="XMLID_2413_" d="m250.885 0v390h135 30v-45-195l-45-30 45-44.999v-75.001z" fill="#815bcd"/><path id="XMLID_2261_" d="m415.885 120.001-164.999 29.999h-75.001v-75h75.001z" fill="#8ada52"/><path id="XMLID_2403_" d="m250.885 75h165v75h-165z" fill="#4bb664"/><path id="XMLID_2245_" d="m250.886 465h-120c-24.853 0-45-20.147-45-45 0-24.853 20.147-45 45-45h120l165 45z" fill="#f1f1f1"/><path id="XMLID_2407_" d="m250.885 375v90h15 60 90v-90h-75l-30 30-30-30z" fill="#c7c7da"/><path id="XMLID_2408_" d="m340.885 375h-60v126.771l30-15 30 15z" fill="#e40c57"/><path id="XMLID_2269_" d="m250.885 313.659c-32.851 0-63.488-17.683-79.955-46.148l-4.345-7.511 4.345-7.511c16.467-28.465 47.104-46.147 79.955-46.147l84.301 53.658z" fill="#fee682"/><path id="XMLID_2405_" d="m330.84 252.489c-16.467-28.465-47.104-46.147-79.955-46.147v107.318c32.851 0 63.488-17.683 79.955-46.147l4.346-7.512z" fill="#fdd034"/><path id="XMLID_2411_" d="m299.759 260-48.781-23.64c-18.181-.039-36.393 7.802-48.966 23.64 12.45 15.682 30.6 23.602 48.781 23.641z" fill="#ff9000"/><path id="XMLID_2416_" d="m250.885 236.362v47.276c18.15.012 36.321-7.827 48.874-23.638-12.471-15.709-30.662-23.625-48.874-23.638z" fill="#ff641a"/></g></svg>