<?xml version="1.0" encoding="utf-8"?>
<!-- Svg Vector Icons : http://www.onlinewebfonts.com/icon -->
<!DOCTYPE svg PUBLIC "-//W3C//DTD SVG 1.1//EN" "http://www.w3.org/Graphics/SVG/1.1/DTD/svg11.dtd">
<svg version="1.1" xmlns="http://www.w3.org/2000/svg" xmlns:xlink="http://www.w3.org/1999/xlink" x="0px" y="0px" viewBox="0 0 1000 1000" enable-background="new 0 0 1000 1000" xml:space="preserve">
<metadata> Svg Vector Icons : http://www.onlinewebfonts.com/icon </metadata>
<g><g transform="translate(0.000000,511.000000) scale(0.100000,-0.100000)"><path d="M2869.7,4027.3c-298.6-256.5-558.9-581.9-759.9-945.5C1769.1,2461.6,1282.9,2032.9,689.5,1830c-80.4-26.8-246.9-68.9-369.4-91.9l-220.1-44v-67c0-157,103.4-434.5,231.6-625.9c250.7-371.3,742.7-721.6,1374.3-981.9c225.9-91.9,578-210.5,624-210.5c13.4,0,30.6,70.8,44,178c57.4,461.3,252.7,966.6,606.8,1563.8c112.9,189.5,162.7,246.9,162.7,191.4c0-9.6,21.1-19.1,44-19.1c53.6,0,218.2-111,415.4-281.4c758-656.5,2721.8-2666.3,4812-4928.7c423-459.4,438.3-472.8,495.7-461.3c34.4,5.7,237.3,74.6,453.6,151.2c216.3,74.7,424.9,143.6,465.1,151.2l70.8,13.4v335v333l-63.2,26.8c-70.8,28.7-654.6,444.1-974.3,691C7987.8-1569.4,7429-1073.7,6548.5-193.2c-1001.1,1001-1760.9,1877.7-2386.8,2746.7l-216.3,302.4l68.9,84.2l70.8,84.2l-84.2,95.7c-468.9,539.8-928.3,1050.8-943.6,1050.8C3045.7,4172.8,2961.5,4107.7,2869.7,4027.3z"/></g></g>
</svg>