<svg xmlns="http://www.w3.org/2000/svg" xmlns:xlink="http://www.w3.org/1999/xlink" version="1.1" x="0px" y="0px" viewBox="0 0 100 125" enable-background="new 0 0 100 100" xml:space="preserve"><g><path d="M86.206,29.41c-7.045-1.922-19.454-8.675-25.782-13.735l-9.049,11.869c2.854,2.145,14.171,14.808,17.333,22.018   C77.688,46.904,85.688,37.809,86.206,29.41z"/><path d="M52.376,33.745c-3.135,3.825-6.537,7.756-10.564,11.238c-2.482,2.147-5.114,4.425-7.922,7.064   C22.109,63.117,17.608,67.804,14.315,73.857c-1.05,1.93-0.466,4.355,1.332,5.616l6.294,4.415c1.352,0.948,3.234,0.284,3.672-1.308   c1.62-5.888,3.678-12.955,14.894-23.492c2.703-2.54,5.237-4.729,7.625-6.794c3.765-3.257,7.283-7.228,10.606-11.086   C56.544,38.426,54.24,35.748,52.376,33.745z"/></g><text x="0" y="115" fill="#000000" font-size="5px" font-weight="bold" font-family="'Helvetica Neue', Helvetica, Arial-Unicode, Arial, Sans-serif">Created by Christopher T. Howlett</text><text x="0" y="120" fill="#000000" font-size="5px" font-weight="bold" font-family="'Helvetica Neue', Helvetica, Arial-Unicode, Arial, Sans-serif">from the Noun Project</text></svg>